<svg width="24" height="24" viewBox="0 0 24 24" fill="none" xmlns="http://www.w3.org/2000/svg">
<path d="M18.0001 2.38133C18.0001 2.24419 17.973 2.10841 17.9203 1.98179C17.8676 1.85518 17.7904 1.74023 17.6931 1.64357C17.5958 1.54691 17.4804 1.47044 17.3535 1.41857C17.2265 1.3667 17.0905 1.34045 16.9534 1.34133H3.71341C3.57628 1.34045 3.44033 1.3667 3.31338 1.41857C3.18643 1.47044 3.07099 1.54691 2.97371 1.64357C2.87643 1.74023 2.79923 1.85518 2.74655 1.98179C2.69386 2.10841 2.66675 2.24419 2.66675 2.38133V18.968C2.66675 19.1051 2.69386 19.2409 2.74655 19.3675C2.79923 19.4941 2.87643 19.6091 2.97371 19.7058C3.07099 19.8024 3.18643 19.8789 3.31338 19.9308C3.44033 19.9826 3.57628 20.0089 3.71341 20.008H4.06008V2.72133H18.0001V2.38133Z" fill="#482BFF"/>
<path d="M19.6668 4.00122H6.3335C5.78121 4.00122 5.3335 4.44894 5.3335 5.00122V21.6679C5.3335 22.2202 5.78121 22.6679 6.3335 22.6679H19.6668C20.2191 22.6679 20.6668 22.2202 20.6668 21.6679V5.00122C20.6668 4.44894 20.2191 4.00122 19.6668 4.00122Z" fill="#482BFF"/>
</svg>
