<svg width="24" height="24" viewBox="0 0 24 24" fill="none" xmlns="http://www.w3.org/2000/svg">
<path fill-rule="evenodd" clip-rule="evenodd" d="M12.0002 1C5.92524 1 1.00024 5.925 1.00024 12C1.00024 18.075 5.92524 23 12.0002 23C18.0752 23 23.0002 18.075 23.0002 12C23.0002 5.925 18.0752 1 12.0002 1ZM8.80024 10C8.65832 9.99836 8.51847 10.0341 8.39472 10.1036C8.27097 10.1731 8.16769 10.274 8.09524 10.396C8.02703 10.5146 7.99452 10.6503 8.00161 10.7869C8.00871 10.9235 8.05511 11.0551 8.13524 11.166L11.3352 15.666C11.4116 15.7705 11.5118 15.8552 11.6274 15.9133C11.743 15.9714 11.8708 16.0011 12.0002 16C12.1298 16.0013 12.2578 15.9716 12.3736 15.9136C12.4895 15.8555 12.5898 15.7706 12.6662 15.666L15.8662 11.166C15.9464 11.0551 15.9928 10.9235 15.9999 10.7869C16.007 10.6503 15.9745 10.5146 15.9062 10.396C15.8337 10.2738 15.7303 10.1729 15.6063 10.1033C15.4824 10.0338 15.3423 9.99819 15.2002 10H8.80024Z" fill="#482BFF"/>
</svg>
