<svg width="24" height="24" viewBox="0 0 24 24" fill="none" xmlns="http://www.w3.org/2000/svg">
<path d="M22 8.608V16.75C22.0001 17.5801 21.6824 18.3788 21.1123 18.9822C20.5422 19.5856 19.7628 19.948 18.934 19.995L18.75 20H5.25C4.41986 20.0001 3.62117 19.6824 3.01777 19.1123C2.41437 18.5422 2.052 17.7628 2.005 16.934L2 16.75V8.608L11.652 13.664C11.7594 13.7202 11.8788 13.7496 12 13.7496C12.1212 13.7496 12.2406 13.7202 12.348 13.664L22 8.608ZM5.25 4H18.75C19.5556 3.9999 20.3325 4.299 20.93 4.83927C21.5276 5.37954 21.9032 6.12248 21.984 6.924L12 12.154L2.016 6.924C2.09352 6.15431 2.44305 5.43752 3.00175 4.90246C3.56045 4.36741 4.29168 4.04919 5.064 4.005L5.25 4H18.75H5.25Z" fill="#482BFF"/>
<circle cx="17.5" cy="7.5" r="6.5" fill="#CC2936"/>
<path d="M16.934 9.076V10H13.231V9.265L15.121 7.48C15.3217 7.28867 15.457 7.12533 15.527 6.99C15.597 6.85 15.632 6.71233 15.632 6.577C15.632 6.381 15.5643 6.23167 15.429 6.129C15.2983 6.02167 15.1047 5.968 14.848 5.968C14.6333 5.968 14.4397 6.01 14.267 6.094C14.0943 6.17333 13.9497 6.29467 13.833 6.458L13.007 5.926C13.1983 5.64133 13.462 5.41967 13.798 5.261C14.134 5.09767 14.519 5.016 14.953 5.016C15.317 5.016 15.6343 5.07667 15.905 5.198C16.1803 5.31467 16.3927 5.48267 16.542 5.702C16.696 5.91667 16.773 6.171 16.773 6.465C16.773 6.731 16.717 6.98067 16.605 7.214C16.493 7.44733 16.276 7.71333 15.954 8.012L14.827 9.076H16.934ZM19.4882 10.084C19.0822 10.084 18.7206 9.98367 18.4032 9.783C18.0859 9.58233 17.8362 9.293 17.6542 8.915C17.4769 8.53233 17.3882 8.07733 17.3882 7.55C17.3882 7.02267 17.4769 6.57 17.6542 6.192C17.8362 5.80933 18.0859 5.51767 18.4032 5.317C18.7206 5.11633 19.0822 5.016 19.4882 5.016C19.8942 5.016 20.2559 5.11633 20.5732 5.317C20.8906 5.51767 21.1379 5.80933 21.3152 6.192C21.4972 6.57 21.5882 7.02267 21.5882 7.55C21.5882 8.07733 21.4972 8.53233 21.3152 8.915C21.1379 9.293 20.8906 9.58233 20.5732 9.783C20.2559 9.98367 19.8942 10.084 19.4882 10.084ZM19.4882 9.125C19.7869 9.125 20.0202 8.99667 20.1882 8.74C20.3609 8.48333 20.4472 8.08667 20.4472 7.55C20.4472 7.01333 20.3609 6.61667 20.1882 6.36C20.0202 6.10333 19.7869 5.975 19.4882 5.975C19.1942 5.975 18.9609 6.10333 18.7882 6.36C18.6202 6.61667 18.5362 7.01333 18.5362 7.55C18.5362 8.08667 18.6202 8.48333 18.7882 8.74C18.9609 8.99667 19.1942 9.125 19.4882 9.125Z" fill="white"/>
</svg>
