<svg width="24" height="24" viewBox="0 0 24 24" fill="none" xmlns="http://www.w3.org/2000/svg">
<path d="M13.8201 22H10.1801C9.95206 22 9.73083 21.9221 9.55313 21.7792C9.37543 21.6362 9.25194 21.4368 9.20313 21.214L8.79613 19.33C8.25319 19.0921 7.73836 18.7946 7.26113 18.443L5.42413 19.028C5.20669 19.0973 4.97208 19.0902 4.75925 19.0078C4.54642 18.9254 4.36818 18.7727 4.25413 18.575L2.43013 15.424C2.31727 15.2261 2.27491 14.9958 2.30997 14.7708C2.34503 14.5457 2.45544 14.3392 2.62313 14.185L4.04813 12.885C3.98333 12.2961 3.98333 11.7019 4.04813 11.113L2.62313 9.816C2.4552 9.66177 2.34464 9.45507 2.30958 9.22978C2.27451 9.00449 2.31702 8.77397 2.43013 8.576L4.25013 5.423C4.36418 5.22532 4.54242 5.07259 4.75525 4.99019C4.96808 4.90778 5.20269 4.90066 5.42013 4.97L7.25713 5.555C7.50113 5.375 7.75513 5.207 8.01713 5.055C8.27013 4.913 8.53013 4.784 8.79613 4.669L9.20413 2.787C9.2527 2.5642 9.37596 2.36469 9.55348 2.22155C9.73099 2.07841 9.95209 2.00024 10.1801 2H13.8201C14.0482 2.00024 14.2693 2.07841 14.4468 2.22155C14.6243 2.36469 14.7476 2.5642 14.7961 2.787L15.2081 4.67C15.4881 4.794 15.7621 4.933 16.0271 5.088C16.2741 5.231 16.5131 5.388 16.7431 5.557L18.5811 4.972C18.7984 4.90292 19.0328 4.91017 19.2454 4.99256C19.458 5.07495 19.6361 5.22753 19.7501 5.425L21.5701 8.578C21.8021 8.985 21.7221 9.5 21.3771 9.817L19.9521 11.117C20.0169 11.7059 20.0169 12.3001 19.9521 12.889L21.3771 14.189C21.7221 14.507 21.8021 15.021 21.5701 15.428L19.7501 18.581C19.6361 18.7787 19.4578 18.9314 19.245 19.0138C19.0322 19.0962 18.7976 19.1033 18.5801 19.034L16.7431 18.449C16.2663 18.8003 15.7518 19.0975 15.2091 19.335L14.7961 21.214C14.7474 21.4366 14.624 21.6359 14.4465 21.7788C14.269 21.9218 14.048 21.9998 13.8201 22ZM11.9961 8C10.9353 8 9.91785 8.42143 9.1677 9.17157C8.41756 9.92172 7.99613 10.9391 7.99613 12C7.99613 13.0609 8.41756 14.0783 9.1677 14.8284C9.91785 15.5786 10.9353 16 11.9961 16C13.057 16 14.0744 15.5786 14.8246 14.8284C15.5747 14.0783 15.9961 13.0609 15.9961 12C15.9961 10.9391 15.5747 9.92172 14.8246 9.17157C14.0744 8.42143 13.057 8 11.9961 8Z" fill="#482BFF"/>
</svg>
