<svg width="24" height="24" viewBox="0 0 24 24" fill="none" xmlns="http://www.w3.org/2000/svg">
<path d="M14.9639 2.02812C14.565 1.66242 14.0403 1.46483 13.4993 1.47657C12.9582 1.48831 12.4426 1.70846 12.0599 2.09112L2.1359 12.0151C1.94088 12.2101 1.78617 12.4416 1.68063 12.6964C1.57508 12.9512 1.52075 13.2243 1.52075 13.5001C1.52075 13.7759 1.57508 14.049 1.68063 14.3038C1.78617 14.5586 1.94088 14.7901 2.1359 14.9851L3.5249 16.3741C4.0454 16.8946 4.7939 16.7701 5.2349 16.4746C5.55225 16.2637 5.93281 16.1691 6.31198 16.2069C6.69114 16.2447 7.04554 16.4126 7.31498 16.6821C7.58442 16.9515 7.7523 17.3059 7.79011 17.685C7.82792 18.0642 7.73333 18.4448 7.5224 18.7621C7.2299 19.2046 7.1039 19.9531 7.6244 20.4736L8.9819 21.8311C9.18066 22.0301 9.41736 22.1871 9.67796 22.2928C9.93855 22.3986 10.2177 22.4509 10.4989 22.4467C10.7801 22.4425 11.0576 22.3819 11.3149 22.2684C11.5723 22.1549 11.8042 21.9909 11.9969 21.7861L21.8939 11.2681C22.0847 11.0656 22.2333 10.8273 22.3311 10.5669C22.429 10.3065 22.4741 10.0292 22.464 9.75123C22.4538 9.47323 22.3885 9.20003 22.2718 8.94749C22.1551 8.69495 21.9895 8.4681 21.7844 8.28012L20.4554 7.06212C20.3092 6.93133 20.1345 6.83639 19.9452 6.78484C19.7559 6.73328 19.5573 6.72654 19.3649 6.76512C19.0244 6.82512 18.7019 7.00662 18.4679 7.26162C18.3214 7.42138 18.145 7.55072 17.9485 7.64227C17.7521 7.73381 17.5395 7.78577 17.323 7.79517C17.1065 7.80457 16.8902 7.77123 16.6866 7.69706C16.4829 7.62289 16.2959 7.50933 16.1362 7.36287C15.8135 7.06709 15.6216 6.65526 15.6026 6.21797C15.5932 6.00145 15.6265 5.78519 15.7007 5.58155C15.7749 5.37791 15.8884 5.19088 16.0349 5.03112C16.2704 4.77762 16.4219 4.44012 16.4534 4.09662C16.4753 3.90171 16.4515 3.70436 16.3838 3.52027C16.3161 3.33617 16.2064 3.1704 16.0634 3.03612L14.9639 2.02812Z" fill="#482BFF"/>
</svg>
